<?xml version="1.0" encoding="UTF-8" standalone="no"?>
<!DOCTYPE svg PUBLIC "-//W3C//DTD SVG 1.1//EN" "http://www.w3.org/Graphics/SVG/1.1/DTD/svg11.dtd">
<svg width="100%" height="100%" viewBox="0 0 334 322" version="1.1" xmlns="http://www.w3.org/2000/svg" xmlns:xlink="http://www.w3.org/1999/xlink" xml:space="preserve" xmlns:serif="http://www.serif.com/" style="fill-rule:evenodd;clip-rule:evenodd;stroke-linejoin:round;stroke-miterlimit:2;">
    <g transform="matrix(1,0,0,1,-238,-101)">
        <g transform="matrix(0.381947,0,0,0.381947,303.031,114.376)">
            <g>
                <g>
                    <g>
                        <g>
                            <path d="M205.666,298.038L180.444,272.816L8.746,431.316C-2.6,441.79 -2.956,459.599 7.963,470.518C18.882,481.437 36.691,481.081 47.165,469.735L205.666,298.038Z" style="fill:rgb(135,63,48);fill-rule:nonzero;"/>
                            <path d="M46.407,470.528C35.85,481.085 18.621,481.175 7.966,470.52C4.814,467.368 2.606,463.645 1.335,459.686C10.752,462.749 21.496,460.509 28.925,453.08C29.186,452.819 29.446,452.542 29.699,452.274L188.203,280.573L205.668,298.038L47.165,469.738C46.912,470.006 46.66,470.275 46.407,470.528Z" style="fill:rgb(108,51,40);fill-rule:nonzero;"/>
                        </g>
                        <path d="M230.504,213.053L172.424,282.333L196.15,306.058L265.43,247.979L230.504,213.053Z" style="fill:rgb(135,63,48);fill-rule:nonzero;"/>
                        <path d="M230.504,213.053L211.737,235.44L217.368,241.071C221.513,245.216 221.513,251.936 217.368,256.08L181.77,291.678L196.15,306.058L265.43,247.979L230.504,213.053Z" style="fill:rgb(108,51,40);fill-rule:nonzero;"/>
                        <g>
                            <path d="M182.043,319.471L159.012,296.44C152.354,289.782 152.354,278.986 159.012,272.328C165.67,265.67 176.466,265.67 183.124,272.328L206.155,295.359C212.813,302.017 212.813,312.812 206.155,319.471C199.497,326.129 188.701,326.129 182.043,319.471Z" style="fill:rgb(186,93,79);fill-rule:nonzero;"/>
                            <path d="M206.148,319.47C202.816,322.802 198.45,324.463 194.1,324.464C189.734,324.464 185.368,322.802 182.036,319.47L164.579,302.013C167.911,305.345 172.277,307.007 176.635,306.998C180.993,307.006 185.359,305.344 188.691,302.013C195.354,295.35 195.346,284.556 188.691,277.901L206.148,295.358C212.811,302.022 212.812,312.807 206.148,319.47Z" style="fill:rgb(163,79,65);fill-rule:nonzero;"/>
                        </g>
                    </g>
                    <g>
                        <g transform="matrix(0.707,0.707,-0.707,0.707,157.241,-138.693)">
                            <rect x="209.872" y="63.681" width="72.331" height="113.557" style="fill:rgb(186,93,79);fill-rule:nonzero;"/>
                        </g>
                        <g transform="matrix(-0.707,-0.707,0.707,-0.707,446.821,649.969)">
                            <rect x="321.858" y="175.666" width="72.331" height="113.557" style="fill:rgb(163,79,65);fill-rule:nonzero;"/>
                        </g>
                    </g>
                    <g>
                        <path d="M165.925,152.617L164.149,150.841C157.413,144.105 157.413,133.184 164.149,126.447L252.026,38.57C258.762,31.834 269.683,31.834 276.42,38.57L278.196,40.346C284.932,47.082 284.932,58.003 278.196,64.74L190.319,152.617C183.583,159.353 172.662,159.353 165.925,152.617Z" style="fill:rgb(135,63,48);fill-rule:nonzero;"/>
                        <path d="M325.866,312.557L327.642,314.333C334.378,321.069 345.299,321.069 352.036,314.333L439.913,226.456C446.649,219.72 446.649,208.799 439.913,202.062L438.137,200.286C431.401,193.55 420.48,193.55 413.743,200.286L325.866,288.163C319.129,294.9 319.129,305.821 325.866,312.557Z" style="fill:rgb(108,51,40);fill-rule:nonzero;"/>
                        <g>
                            <g transform="matrix(0.707,0.707,-0.707,0.707,213.233,-161.886)">
                                <rect x="261.417" y="90.7" width="81.227" height="171.505" style="fill:rgb(252,193,109);fill-rule:nonzero;"/>
                            </g>
                            <g transform="matrix(0.707,-0.707,0.707,0.707,-42.183,279.433)">
                                <rect x="230.461" y="170.079" width="171.505" height="41.112" style="fill:rgb(252,166,47);fill-rule:nonzero;"/>
                            </g>
                            <path d="M334.208,84.646L320.138,78.894C315.315,76.922 309.779,78.036 306.095,81.721L207.299,180.517C203.614,184.202 202.5,189.737 204.472,194.56L210.224,208.63C212.556,214.335 219.947,215.823 224.305,211.465L337.042,98.727C341.401,94.369 339.913,86.978 334.208,84.646Z" style="fill:rgb(135,63,48);fill-rule:nonzero;"/>
                            <path d="M393.837,144.275L399.589,158.345C401.561,163.168 400.447,168.704 396.762,172.388L297.966,271.184C294.281,274.869 288.746,275.983 283.923,274.011L269.853,268.259C264.148,265.927 262.66,258.536 267.018,254.178L379.756,141.44C384.114,137.082 391.505,138.57 393.837,144.275Z" style="fill:rgb(108,51,40);fill-rule:nonzero;"/>
                        </g>
                    </g>
                </g>
                <g>
                    <g>
                        <path d="M445.921,420.777L236.44,420.777L236.44,391.38C236.44,385.311 241.36,380.391 247.429,380.391L434.932,380.391C441.001,380.391 445.921,385.311 445.921,391.38L445.921,420.777Z" style="fill:rgb(186,93,79);fill-rule:nonzero;"/>
                        <path d="M445.918,391.382L445.918,420.777L422.93,420.777L422.93,391.382C422.93,385.316 418.007,380.393 411.941,380.393L434.93,380.393C440.995,380.393 445.918,385.316 445.918,391.382Z" style="fill:rgb(163,79,65);fill-rule:nonzero;"/>
                    </g>
                    <path d="M492.089,478.478L190.272,478.478C182.266,478.478 176.948,470.192 180.281,462.914L190.951,439.617C200.193,419.437 220.352,406.497 242.548,406.497L439.813,406.497C462.009,406.497 482.168,419.437 491.41,439.617L502.08,462.914C505.413,470.192 500.094,478.478 492.089,478.478Z" style="fill:rgb(135,63,48);fill-rule:nonzero;"/>
                    <path d="M492.093,478.479L462.709,478.479C470.709,478.479 476.027,470.193 472.698,462.919L462.028,439.612C452.786,419.436 432.622,406.492 410.435,406.492L439.808,406.492C462.005,406.492 482.17,419.437 491.412,439.612L502.082,462.919C505.412,470.194 500.093,478.479 492.093,478.479Z" style="fill:rgb(108,51,40);fill-rule:nonzero;"/>
                    <g>
                        <g id="XMLID_233_">
                            <path d="M476.084,362.195C474.128,362.195 472.174,361.446 470.686,359.95C467.723,356.968 467.737,352.149 470.718,349.185L478.955,340.997C481.937,338.034 486.756,338.049 489.72,341.029C492.683,344.011 492.669,348.83 489.688,351.794L481.451,359.982C479.966,361.458 478.024,362.195 476.084,362.195Z" style="fill:rgb(252,193,109);fill-rule:nonzero;"/>
                        </g>
                        <g id="XMLID_232_">
                            <path d="M452.063,345.171C451.45,345.171 450.827,345.096 450.205,344.94C446.128,343.917 443.652,339.783 444.674,335.706L447.531,324.316C448.554,320.238 452.691,317.763 456.765,318.785C460.842,319.808 463.318,323.942 462.296,328.019L459.439,339.409C458.573,342.865 455.471,345.171 452.063,345.171Z" style="fill:rgb(252,193,109);fill-rule:nonzero;"/>
                        </g>
                        <g id="XMLID_153_">
                            <path d="M492.971,386.315C489.545,386.315 486.434,383.986 485.584,380.51C484.585,376.426 487.085,372.306 491.169,371.308L502.579,368.517C506.665,367.517 510.782,370.018 511.781,374.102C512.78,378.186 510.28,382.306 506.196,383.304L494.786,386.095C494.178,386.243 493.57,386.315 492.971,386.315Z" style="fill:rgb(252,193,109);fill-rule:nonzero;"/>
                        </g>
                    </g>
                </g>
            </g>
        </g>
        <g transform="matrix(0.772247,0,0,0.772247,58.4818,63.729)">
            <text x="264.93px" y="407.588px" style="font-family:'AppleMyungjo';font-size:122.372px;fill:rgb(135,63,48);">Auctix</text>
        </g>
    </g>
</svg>
